<svg width="53" height="54" viewBox="0 0 53 54" fill="none" xmlns="http://www.w3.org/2000/svg">
<path d="M1.52539 5.22306L7.40064 1.56812H46.3581L52.1429 5.22306V48.117L46.3581 52.1857H7.40064L1.52539 48.117V5.22306Z" stroke="#373634" stroke-width="1.68725"/>
<path d="M12.0713 13.3889L15.4985 11.2568H38.2237L41.5982 13.3889V38.4103L38.2237 40.7837H15.4985L12.0713 38.4103V13.3889Z" stroke="#373634" stroke-width="0.843626"/>
<path d="M9.11816 10.8624L13.2308 8.30396H40.501L44.5505 10.8624V40.8881L40.501 43.7362H13.2308L9.11816 40.8881V10.8624Z" stroke="#373634" stroke-width="0.843626"/>
<path d="M5.56348 8.83217L10.4595 5.78638H42.9241L47.7448 8.83217V44.5771L42.9241 47.9677H10.4595L5.56348 44.5771V8.83217Z" stroke="#373634" stroke-width="0.843626"/>
<path d="M12.0799 38.4467L1.53102 48.142" stroke="#373634" stroke-width="0.843626"/>
<path d="M15.3124 40.5808L7.32448 51.8004" stroke="#373634" stroke-width="0.843626"/>
<path d="M41.4338 38.4465L51.9827 48.1417" stroke="#373634" stroke-width="0.843626"/>
<path d="M38.2022 40.5808L46.1902 51.8004" stroke="#373634" stroke-width="0.843626"/>
<path d="M41.6074 13.5481L52.4805 5.0914" stroke="#373634" stroke-width="0.843626"/>
<path d="M38.1984 11.3909L46.6553 1.25122" stroke="#373634" stroke-width="0.843626"/>
<path d="M12.124 13.5481L1.25092 5.0914" stroke="#373634" stroke-width="0.843626"/>
<path d="M15.532 11.3909L7.07518 1.25122" stroke="#373634" stroke-width="0.843626"/>
</svg>
