<svg width="50" height="50" viewBox="0 0 50 50" fill="none" xmlns="http://www.w3.org/2000/svg">
<rect x="1.24036" y="1.3036" width="46.9973" height="46.9973" rx="13.5002" stroke="#373634" stroke-width="1.56667" stroke-miterlimit="3.99393"/>
<rect x="11.0273" y="11.0901" width="27.4244" height="27.4244" stroke="#373634" stroke-width="0.783333" stroke-miterlimit="3.99393"/>
<line x1="16.3112" y1="42.1496" x2="25.0212" y2="38.7093" stroke="#373634" stroke-width="0.783333" stroke-miterlimit="3.99393"/>
<path d="M16.7576 42.1333L25.3789 48.0195" stroke="#373634" stroke-width="0.783333" stroke-miterlimit="3.99393"/>
<path d="M33.2334 42.0764L24.7393 38.4344" stroke="#373634" stroke-width="0.783333" stroke-miterlimit="3.99393"/>
<path d="M32.7207 42.1335L25.1654 47.8067" stroke="#373634" stroke-width="0.783333" stroke-miterlimit="3.99393"/>
<path d="M16.2451 7.5275L24.5269 10.957" stroke="#373634" stroke-width="0.783333" stroke-miterlimit="3.99393" stroke-linejoin="round"/>
<path d="M16.7573 7.47114L24.5266 1.79783" stroke="#373634" stroke-width="0.783333" stroke-miterlimit="3.99393"/>
<path d="M32.6213 7.33594L24.74 10.957" stroke="#373634" stroke-width="0.783333" stroke-miterlimit="3.99393" stroke-linejoin="round"/>
<path d="M32.7203 7.47118L24.5261 1.79788" stroke="#373634" stroke-width="0.783333" stroke-miterlimit="3.99393"/>
<path d="M42.2053 16.9212L38.3788 25.6602" stroke="#373634" stroke-width="0.783333" stroke-miterlimit="3.99393"/>
<path d="M41.9934 16.7081L47.7446 25.0153" stroke="#373634" stroke-width="0.783333" stroke-miterlimit="3.99393"/>
<line x1="42.0968" y1="33.2555" x2="38.4437" y2="25.6101" stroke="#373634" stroke-width="0.783333" stroke-miterlimit="3.99393"/>
<path d="M42.0693 32.7849L47.743 25.0153" stroke="#373634" stroke-width="0.783333" stroke-miterlimit="3.99393"/>
<path d="M7.46484 16.3066L10.8947 24.8022" stroke="#373634" stroke-width="0.783333" stroke-miterlimit="3.99393"/>
<path d="M7.40803 16.8198L1.73559 25.0154" stroke="#373634" stroke-width="0.783333" stroke-miterlimit="3.99393"/>
<path d="M7.46484 33.2979L10.8947 25.0153" stroke="#373634" stroke-width="0.783333" stroke-miterlimit="3.99393"/>
<path d="M7.40736 32.7848L1.73497 25.0152" stroke="#373634" stroke-width="0.783333" stroke-miterlimit="3.99393"/>
<path d="M10.8945 11.1702L16.6456 7.54911" stroke="#373634" stroke-width="0.783333" stroke-miterlimit="3.99393"/>
<path d="M11.1075 10.957L7.41852 16.8058" stroke="#373634" stroke-width="0.783333" stroke-miterlimit="3.99393"/>
<path d="M7.69935 16.069L5.14331 6.05791" stroke="#373634" stroke-width="0.783333" stroke-miterlimit="3.99393"/>
<path d="M16.6454 7.54906L5.56924 5.84503" stroke="#373634" stroke-width="0.783333" stroke-miterlimit="3.99393"/>
<path d="M38.585 11.1702L32.1949 7.30839" stroke="#373634" stroke-width="0.783333" stroke-miterlimit="3.99393"/>
<path d="M38.3724 10.9572L42.0608 16.806" stroke="#373634" stroke-width="0.783333" stroke-miterlimit="3.99393"/>
<path d="M41.9927 16.7081L44.1228 5.63189" stroke="#373634" stroke-width="0.783333" stroke-miterlimit="3.99393"/>
<path d="M32.6213 7.33618L43.9104 5.41907" stroke="#373634" stroke-width="0.783333" stroke-miterlimit="3.99393"/>
<path d="M38.585 38.4346L33.0469 42.0556" stroke="#373634" stroke-width="0.783333" stroke-miterlimit="3.99393"/>
<path d="M38.3713 38.4346L42.0598 32.7986" stroke="#373634" stroke-width="0.783333" stroke-miterlimit="3.99393"/>
<path d="M41.9922 32.8965L43.6962 44.1857" stroke="#373634" stroke-width="0.783333" stroke-miterlimit="3.99393"/>
<line x1="33.1197" y1="42.1345" x2="44.2609" y2="44.9912" stroke="#373634" stroke-width="0.783333" stroke-miterlimit="3.99393"/>
<path d="M10.8945 38.4346L16.4326 41.8426" stroke="#373634" stroke-width="0.783333" stroke-miterlimit="3.99393"/>
<path d="M11.1075 38.6475L7.41854 32.7987" stroke="#373634" stroke-width="0.783333" stroke-miterlimit="3.99393"/>
<path d="M7.27344 32.8965L5.78241 44.1857" stroke="#373634" stroke-width="0.783333" stroke-miterlimit="3.99393"/>
<line y1="-0.391667" x2="11.5016" y2="-0.391667" transform="matrix(-0.968664 0.248375 0.248375 0.968664 16.4551 42.5139)" stroke="#373634" stroke-width="0.783333" stroke-miterlimit="3.99393"/>
<path d="M16.6454 7.12301L13.4504 1.15891" stroke="#373634" stroke-width="0.783333" stroke-miterlimit="3.99393"/>
<path d="M32.5771 6.89697L35.8157 1.5848" stroke="#373634" stroke-width="0.783333" stroke-miterlimit="3.99393"/>
<line x1="33.3872" y1="42.0855" x2="35.9582" y2="48.656" stroke="#373634" stroke-width="0.783333" stroke-miterlimit="3.99393"/>
<path d="M7.00586 32.7107L1.73528 37.3694" stroke="#373634" stroke-width="0.783333" stroke-miterlimit="3.99393"/>
<path d="M47.5314 38.0086L41.7802 33.1095" stroke="#373634" stroke-width="0.783333" stroke-miterlimit="3.99393"/>
<line y1="-0.391667" x2="8.09008" y2="-0.391667" transform="matrix(-0.741536 -0.670913 -0.670913 0.741536 7.02734 16.8035)" stroke="#373634" stroke-width="0.783333" stroke-miterlimit="3.99393"/>
<path d="M16.9014 42.4219L12.1729 48.0197" stroke="#373634" stroke-width="0.783333" stroke-miterlimit="3.99393"/>
</svg>
