<svg width="42" height="54" viewBox="0 0 42 54" fill="none" xmlns="http://www.w3.org/2000/svg">
<path d="M40.2568 5.0652L35.7219 1.36743H5.65149L1.18628 5.0652V48.4617L5.65149 52.578H35.7219L40.2568 48.4617V5.0652Z" stroke="#373634" stroke-width="1.73964"/>
<path d="M37.1865 8.30884L33.3642 5.13501H8.01916L4.25563 8.30884V45.5565L8.01916 49.0896H33.3642L37.1865 45.5565V8.30884Z" stroke="#373634" stroke-width="0.869822"/>
<path d="M33.6992 11.6418L30.7029 9.04224H10.835L7.88475 11.6418V42.1493L10.835 45.0432H30.7029L33.6992 42.1493V11.6418Z" stroke="#373634" stroke-width="0.869822"/>
<path d="M30.6279 14.7558L28.3442 12.6702H13.2017L10.9531 14.7558V39.2328L13.2017 41.5546H28.3442L30.6279 39.2328V14.7558Z" stroke="#373634" stroke-width="0.869822"/>
<path d="M28.3269 12.74L35.7113 1.40535" stroke="#373634" stroke-width="0.869822"/>
<path d="M30.5605 14.7632L40.2584 5.06526" stroke="#373634" stroke-width="0.869822"/>
<path d="M13.1858 12.751L5.80135 1.41634" stroke="#373634" stroke-width="0.869822"/>
<path d="M10.9531 14.7747L1.25525 5.07674" stroke="#373634" stroke-width="0.869822"/>
<path d="M13.2561 41.415L5.80192 52.5404" stroke="#373634" stroke-width="0.869822"/>
<path d="M11.0243 39.1823L1.25662 48.5314" stroke="#373634" stroke-width="0.869822"/>
<path d="M28.2576 41.4163L35.7118 52.5416" stroke="#373634" stroke-width="0.869822"/>
<path d="M30.4884 39.1835L40.2561 48.5326" stroke="#373634" stroke-width="0.869822"/>
</svg>
