<svg width="53" height="50" viewBox="0 0 53 50" fill="none" xmlns="http://www.w3.org/2000/svg">
<path d="M27.2179 48.4537C13.8474 42.1745 7.13325 35.2539 3.4613 25.209C1.6729 14.9434 4.64422 7.13353 9.32533 3.61626C11.6601 1.86197 14.4458 1.145 17.3848 1.69424C20.3358 2.24575 23.5179 4.09013 26.5743 7.60172L27.2092 8.33118L27.8479 7.605C31.0325 3.98395 34.3148 2.25002 37.3258 1.86872C40.3307 1.48818 43.169 2.44064 45.5145 4.39093C50.2255 8.30823 52.9365 16.2775 50.5663 25.2117C47.6063 36.3686 40.0531 42.6119 27.2179 48.4537Z" stroke="#373634" stroke-width="1.69222"/>
<path d="M26.8418 8.77173L9.91954 3.69506" stroke="#373634" stroke-width="0.846113"/>
<path d="M7.94727 9.96069L9.91877 3.69521" stroke="#373634" stroke-width="0.846113"/>
<path d="M45.6914 10.3669L26.8406 8.77181" stroke="#373634" stroke-width="0.846113"/>
<path d="M8.38281 9.5083L26.842 8.77177" stroke="#373634" stroke-width="0.846113"/>
<path d="M26.8425 8.77162L43.7648 3.69494" stroke="#373634" stroke-width="0.846113"/>
<path d="M45.5723 10.4736L43.7627 3.69503" stroke="#373634" stroke-width="0.846113"/>
<path d="M20.7867 40.0161L26.8414 47.693" stroke="#373634" stroke-width="0.846113"/>
<path d="M46.7812 25.0225L35.3025 5.38724" stroke="#373634" stroke-width="0.846113"/>
<path d="M7.39941 24.8977L18.3807 5.38736" stroke="#373634" stroke-width="0.846113"/>
<path d="M3.15042 15.5407L8.38203 9.67869" stroke="#373634" stroke-width="0.846113"/>
<path d="M3.15001 15.5407L7.50414 24.8357" stroke="#373634" stroke-width="0.846113"/>
<path d="M50.5326 15.5406L45.4559 10.2488" stroke="#373634" stroke-width="0.846113"/>
<path d="M50.5327 15.5407L46.76 25.0729" stroke="#373634" stroke-width="0.846113"/>
<path d="M3.2334 26.6147L7.62147 24.7172" stroke="#373634" stroke-width="0.846113"/>
<path d="M50.791 26.7766L46.6401 24.9543" stroke="#373634" stroke-width="0.846113"/>
<path d="M20.7866 40.0161L8.33398 9.89265" stroke="#373634" stroke-width="0.846113"/>
<path d="M33.5946 40.1345L45.6914 10.2482" stroke="#373634" stroke-width="0.846113"/>
<path d="M26.9537 38.9487L7.50391 24.7172" stroke="#373634" stroke-width="0.846113"/>
<path d="M27.1914 38.9487L46.8784 24.9544" stroke="#373634" stroke-width="0.846113"/>
<path d="M20.7861 39.8975L27.0718 38.9487" stroke="#373634" stroke-width="0.846113"/>
<path d="M7.50398 24.8355L9.91984 35.8472" stroke="#373634" stroke-width="0.846113"/>
<line x1="9.2879" y1="36.1721" x2="20.9104" y2="39.73" stroke="#373634" stroke-width="0.846113"/>
<path d="M33.6932 40.0161L26.8422 47.6929" stroke="#373634" stroke-width="0.846113"/>
<line y1="-0.423056" x2="11.7404" y2="-0.423056" transform="matrix(-0.141422 0.989949 0.98995 0.141421 46.9756 24.9543)" stroke="#373634" stroke-width="0.846113"/>
<line y1="-0.423056" x2="12.1548" y2="-0.423056" transform="matrix(-0.9562 0.292714 0.292715 0.9562 45.3154 36.5767)" stroke="#373634" stroke-width="0.846113"/>
<path d="M5.20898 7.07471L8.33396 9.89247" stroke="#373634" stroke-width="0.846113"/>
<path d="M49.0127 7.28345L45.5236 10.457" stroke="#373634" stroke-width="0.846113"/>
<path d="M18.0586 2.00293L18.3809 7.0796" stroke="#373634" stroke-width="0.846113"/>
<path d="M35.0186 1.70947L35.3028 7.07957" stroke="#373634" stroke-width="0.846113"/>
<path d="M26.9541 38.9487L33.6073 40.0167" stroke="#373634" stroke-width="0.846113"/>
<path d="M20.8887 39.9585L17.7035 43.9298" stroke="#373634" stroke-width="0.846113"/>
</svg>
