<svg width="29" height="56" viewBox="0 0 29 56" fill="none" xmlns="http://www.w3.org/2000/svg">
<path d="M27.3693 27.8486C27.3693 38.7946 21.6296 48.6536 14.9564 54.5217C8.56674 48.6252 2.51743 38.5265 2.51743 27.8486C2.51743 22.3841 4.29375 16.6706 6.81801 11.8122C9.2222 7.18492 12.2577 3.42288 14.969 1.41551C17.8036 3.29848 20.8308 6.98617 23.195 11.6141C25.673 16.4646 27.3693 22.2452 27.3693 27.8486Z" stroke="#373634" stroke-width="1.59932"/>
<path d="M14.8077 1.30333L8.07021 27.1806" stroke="#373634" stroke-width="0.799661"/>
<path d="M15.0293 7.66406L4.98128 22.8648" stroke="#373634" stroke-width="0.799661"/>
<path d="M14.9434 7.66406L25.3349 22.7789" stroke="#373634" stroke-width="0.799661"/>
<path d="M15.0293 47.5925L4.8954 31.6246" stroke="#373634" stroke-width="0.799661"/>
<path d="M14.9434 47.5925L25.3349 31.5387" stroke="#373634" stroke-width="0.799661"/>
<path d="M14.8076 1.30347L21.8943 27.1809" stroke="#373634" stroke-width="0.799661"/>
<path d="M14.8078 54.6518L8.07358 27.1588" stroke="#373634" stroke-width="0.799661"/>
<path d="M14.8076 54.6516L21.9003 27.0728" stroke="#373634" stroke-width="0.799661"/>
<path d="M8.07253 27.1589L4.89491 22.779" stroke="#373634" stroke-width="0.799661"/>
<path d="M8.07253 27.1941L4.89491 31.574" stroke="#373634" stroke-width="0.799661"/>
<path d="M21.9008 27.2447L25.2502 22.7286" stroke="#373634" stroke-width="0.799661"/>
<path d="M21.8143 27.1586L25.2495 31.5235" stroke="#373634" stroke-width="0.799661"/>
<line y1="-0.39983" x2="2.42906" y2="-0.39983" transform="matrix(0.707109 0.707104 -0.707109 0.707104 13.3115 6.2041)" stroke="#373634" stroke-width="0.799661"/>
<path d="M11.0635 5.04712L13.4834 6.28988" stroke="#373634" stroke-width="0.799661"/>
<line y1="-0.39983" x2="2.42906" y2="-0.39983" transform="matrix(0.707109 0.707104 -0.707109 0.707104 13.3115 6.2041)" stroke="#373634" stroke-width="0.799661"/>
<path d="M2.40527 21.9202L5.07755 22.862" stroke="#373634" stroke-width="0.799661"/>
<path d="M2.31931 33.4279L4.89571 31.5386" stroke="#373634" stroke-width="0.799661"/>
<path d="M7.32055 9.72688L13.4829 6.28992" stroke="#373634" stroke-width="0.799661"/>
<path d="M7.32031 9.72681L4.98143 22.8647" stroke="#373634" stroke-width="0.799661"/>
<path d="M13.4832 50.0029L15.0291 47.5124" stroke="#373634" stroke-width="0.799661"/>
<path d="M13.4841 50.0028L7.32031 44.3564" stroke="#373634" stroke-width="0.799661"/>
<path d="M4.80957 31.4526L7.32034 44.3564" stroke="#373634" stroke-width="0.799661"/>
<path d="M16.3174 49.831L14.9434 47.5981" stroke="#373634" stroke-width="0.799661"/>
<path d="M16.3181 49.8311L22.2954 45.2925" stroke="#373634" stroke-width="0.799661"/>
<path d="M25.249 31.6245L22.295 45.2923" stroke="#373634" stroke-width="0.799661"/>
<path d="M16.4893 6.29004L22.2959 8.79097" stroke="#373634" stroke-width="0.799661"/>
<path d="M22.2949 8.79102L25.2482 22.779" stroke="#373634" stroke-width="0.799661"/>
<path d="M5.10165 22.6929L2.6405 27.5096" stroke="#373634" stroke-width="0.799661"/>
<path d="M27.9106 26.5736L25.335 22.7788" stroke="#373634" stroke-width="0.799661"/>
<path d="M27.9108 26.5738L25.2485 31.6246" stroke="#373634" stroke-width="0.799661"/>
<path d="M26.9747 34.0611L25.249 31.6245" stroke="#373634" stroke-width="0.799661"/>
<path d="M4.98097 31.6244L2.64062 27.5095" stroke="#373634" stroke-width="0.799661"/>
<line y1="-0.39983" x2="2.42906" y2="-0.39983" transform="matrix(-0.707109 0.707104 0.707109 0.707104 16.7471 6.28711)" stroke="#373634" stroke-width="0.799661"/>
<path d="M19.9873 5.34521L16.574 6.37295" stroke="#373634" stroke-width="0.799661"/>
</svg>
