<svg width="59" height="45" viewBox="0 0 59 45" fill="none" xmlns="http://www.w3.org/2000/svg">
<path d="M17.8955 22.9695H38.677" stroke="#373634" stroke-width="0.942082"/>
<path d="M28.062 41.1084L28.3087 41.5097L29.1113 41.0163L28.8646 40.615L28.062 41.1084ZM17.1671 23.3873L28.062 41.1084L28.8646 40.615L17.9696 22.8939L17.1671 23.3873Z" fill="#373634"/>
<path d="M28.0723 15.9199L10.0063 5.22416" stroke="#373634" stroke-width="0.942082"/>
<path d="M28.1553 15.9199L45.9107 5.84858" stroke="#373634" stroke-width="0.942082"/>
<path d="M28.2597 15.779L17.6047 23.2203" stroke="#373634" stroke-width="0.942082"/>
<path d="M11.3627 5.46231L17.5999 22.9126" stroke="#373634" stroke-width="0.942082"/>
<path d="M45.2207 5.7356L38.8015 23.0991" stroke="#373634" stroke-width="0.942082"/>
<path d="M27.9195 15.8003L38.7633 23.1551" stroke="#373634" stroke-width="0.942082"/>
<path d="M38.7109 23.4407L28.5083 41.0422" stroke="#373634" stroke-width="0.942082" stroke-linecap="square"/>
<path d="M3.7422 17.8265L17.6098 22.9878" stroke="#373634" stroke-width="0.942082"/>
<path d="M2.27606 19.1388L10.9509 4.98492" stroke="#373634" stroke-width="1.88416"/>
<path d="M35.0299 1.56811L21.2505 1.56799" stroke="#373634" stroke-width="1.88416"/>
<path d="M21.6222 1.50452L10.6087 5.32754" stroke="#373634" stroke-width="1.88416"/>
<path d="M34.7873 1.512L45.3917 5.25476" stroke="#373634" stroke-width="1.88416"/>
<path d="M2.04884 17.8831L29.0128 41.6975" stroke="#373634" stroke-width="1.88416"/>
<path d="M53.1895 17.8262L38.8018 23.0195" stroke="#373634" stroke-width="0.942082"/>
<path d="M54.6557 19.1389L44.9662 4.9849" stroke="#373634" stroke-width="1.88416"/>
<path d="M54.8838 17.8831L27.9198 41.6975" stroke="#373634" stroke-width="1.88416"/>
</svg>
