<svg width="36" height="53" viewBox="0 0 36 53" fill="none" xmlns="http://www.w3.org/2000/svg">
<path d="M34.8369 26.2129C34.8369 33.2684 32.929 39.6212 29.8848 44.1875C26.8369 48.7592 22.7111 51.4666 18.2581 51.4666C13.8051 51.4666 9.67929 48.7592 6.63148 44.1875C3.58727 39.6212 1.67932 33.2684 1.67932 26.2129C1.67932 19.1573 3.58727 12.8046 6.63148 8.23824C9.67929 3.66652 13.8051 0.959104 18.2581 0.959104C22.7111 0.959104 26.8369 3.66652 29.8848 8.23824C32.929 12.8046 34.8369 19.1573 34.8369 26.2129Z" stroke="#373634" stroke-width="1.54223"/>
<line x1="15.6648" y1="42.3926" x2="18.6269" y2="52.1255" stroke="#373634" stroke-width="0.771116"/>
<line x1="14.5097" y1="9.78889" x2="17.8951" y2="0.479176" stroke="#373634" stroke-width="0.771116"/>
<line x1="15.3852" y1="42.88" x2="6.49866" y2="44.9958" stroke="#373634" stroke-width="0.771116"/>
<line x1="6.04684" y1="44.4888" x2="9.43219" y2="35.1791" stroke="#373634" stroke-width="0.771116"/>
<line x1="14.8372" y1="9.88178" x2="5.52745" y2="9.03544" stroke="#373634" stroke-width="0.771116"/>
<line x1="5.91252" y1="8.49207" x2="10.1442" y2="17.8018" stroke="#373634" stroke-width="0.771116"/>
<line x1="10.0738" y1="17.8043" x2="1.18728" y2="27.114" stroke="#373634" stroke-width="0.771116"/>
<line x1="9.52229" y1="35.5837" x2="1.05892" y2="27.1203" stroke="#373634" stroke-width="0.771116"/>
<line y1="-0.385558" x2="10.1737" y2="-0.385558" transform="matrix(-0.291162 0.956674 0.956674 0.291162 21.2197 42.5049)" stroke="#373634" stroke-width="0.771116"/>
<path d="M21.8546 9.70907L18.2576 0.399356" stroke="#373634" stroke-width="0.771116"/>
<line y1="-0.385558" x2="9.13496" y2="-0.385558" transform="matrix(0.972806 0.231621 0.23162 -0.972806 21.2197 42.5049)" stroke="#373634" stroke-width="0.771116"/>
<line y1="-0.385558" x2="9.90613" y2="-0.385558" transform="matrix(-0.341743 -0.939793 -0.939793 0.341743 30.1064 44.6206)" stroke="#373634" stroke-width="0.771116"/>
<line y1="-0.385558" x2="9.3481" y2="-0.385558" transform="matrix(0.995893 -0.0905358 -0.0905357 -0.995893 21.6426 9.4978)" stroke="#373634" stroke-width="0.771116"/>
<line y1="-0.385558" x2="10.2263" y2="-0.385558" transform="matrix(-0.413803 0.910366 0.910366 0.413803 30.9521 8.65161)" stroke="#373634" stroke-width="0.771116"/>
<line y1="-0.385558" x2="12.8702" y2="-0.385558" transform="matrix(0.690476 0.723356 0.723355 -0.690476 26.7207 17.5381)" stroke="#373634" stroke-width="0.771116"/>
<line y1="-0.385558" x2="11.969" y2="-0.385558" transform="matrix(0.707107 -0.707107 -0.707107 -0.707107 26.7207 35.311)" stroke="#373634" stroke-width="0.771116"/>
<path d="M10.0068 17.7495L21.8556 9.7093" stroke="#373634" stroke-width="0.771116"/>
<path d="M26.5084 17.7492L14.4482 9.49743" stroke="#373634" stroke-width="0.771116"/>
<path d="M9.37012 35.311L21.2188 42.7165" stroke="#373634" stroke-width="0.771116"/>
<path d="M27.1445 35.0994L15.5074 42.7164" stroke="#373634" stroke-width="0.771116"/>
<path d="M14.6562 9.5354L9.58153 35.5227" stroke="#373634" stroke-width="0.771116"/>
<path d="M21.8535 9.4978L26.9315 35.3111" stroke="#373634" stroke-width="0.771116"/>
<line x1="15.3422" y1="42.5878" x2="9.84103" y2="17.6209" stroke="#373634" stroke-width="0.771116"/>
<line x1="20.8432" y1="42.4219" x2="26.3444" y2="17.455" stroke="#373634" stroke-width="0.771116"/>
<line x1="14.1284" y1="9.71167" x2="9.89673" y2="3.36414" stroke="#373634" stroke-width="0.771116"/>
<path d="M21.8544 9.49766L26.2977 3.15013" stroke="#373634" stroke-width="0.771116"/>
<path d="M10.006 17.7496L2.54088 16.0484" stroke="#373634" stroke-width="0.771116"/>
<path d="M33.9148 15.8453L26.7208 17.538" stroke="#373634" stroke-width="0.771116"/>
<path d="M9.44629 35.5093L3.02437 37.8502" stroke="#373634" stroke-width="0.771116"/>
<path d="M27.1445 35.3701L33.5664 37.711" stroke="#373634" stroke-width="0.771116"/>
<path d="M15.5078 42.7166L10.8157 49.3955" stroke="#373634" stroke-width="0.771116"/>
<path d="M20.7969 42.552L25.8749 49.6991" stroke="#373634" stroke-width="0.771116"/>
</svg>
