<svg width="37" height="53" viewBox="0 0 37 53" fill="none" xmlns="http://www.w3.org/2000/svg">
<path d="M1.14212 34.8812C1.14212 40.5393 2.71414 44.6764 5.57831 47.4059C8.44899 50.1416 12.7403 51.5806 18.4181 51.5806C24.0959 51.5806 28.336 50.1417 31.1574 47.4102C33.9743 44.6829 35.5019 40.5458 35.5019 34.8812C35.5019 29.2446 33.2796 21.6499 29.9405 14.9888C28.2754 11.6672 26.3472 8.60736 24.3077 6.16271C22.3692 3.83896 20.3693 2.11838 18.4417 1.2256C16.4394 2.27809 14.3878 4.09756 12.4175 6.4599C10.3481 8.94106 8.40112 11.9816 6.7247 15.2587C3.36257 21.8311 1.14212 29.2477 1.14212 34.8812Z" stroke="#373634" stroke-width="1.57619"/>
<path d="M18.4181 0.452102L23.2287 10.8879" stroke="#373634" stroke-width="0.788096"/>
<path d="M18.4186 0.482687L13.4919 10.8345" stroke="#373634" stroke-width="0.788096"/>
<line y1="-0.394048" x2="7.6408" y2="-0.394048" transform="matrix(-0.821589 0.570081 0.570082 0.821588 24.5674 48.0129)" stroke="#373634" stroke-width="0.788096"/>
<line y1="-0.394048" x2="7.6408" y2="-0.394048" transform="matrix(0.821589 0.570081 -0.570082 0.821588 12.0117 48.0129)" stroke="#373634" stroke-width="0.788096"/>
<path d="M23.2228 10.7958L31.358 16.2406" stroke="#373634" stroke-width="0.788096"/>
<path d="M31.3584 16.2405L29.1164 25.3366" stroke="#373634" stroke-width="0.788096"/>
<path d="M35.9066 30.9737L29.1171 25.3367" stroke="#373634" stroke-width="0.788096"/>
<path d="M35.906 31.0379L30.1521 39.3933" stroke="#373634" stroke-width="0.788096"/>
<path d="M30.14 39.3649L32.382 47.0517" stroke="#373634" stroke-width="0.788096"/>
<path d="M24.5674 47.9487L32.5105 47.116" stroke="#373634" stroke-width="0.788096"/>
<path d="M23.1582 10.7957L27.7063 32.4469" stroke="#373634" stroke-width="0.788096"/>
<path d="M30.1411 39.3652L27.6429 32.1908" stroke="#373634" stroke-width="0.788096"/>
<path d="M29.1172 25.3232L24.5677 47.9488" stroke="#373634" stroke-width="0.788096"/>
<line y1="-0.394048" x2="20.1155" y2="-0.394048" transform="matrix(-0.904386 0.426716 0.426718 0.904385 30.2041 39.429)" stroke="#373634" stroke-width="0.788096"/>
<path d="M29.1156 25.3367L18.354 13.4862" stroke="#373634" stroke-width="0.788096"/>
<line y1="-0.394048" x2="4.41761" y2="-0.394048" transform="matrix(-0.870023 0.493012 0.493013 0.870022 27.1299 8.68164)" stroke="#373634" stroke-width="0.788096"/>
<path d="M23.1258 10.8039L18.3531 13.486" stroke="#373634" stroke-width="0.788096"/>
<line y1="-0.394048" x2="7.6408" y2="-0.394048" transform="matrix(0.821589 0.570081 -0.570082 0.821588 12.0762 48.0129)" stroke="#373634" stroke-width="0.788096"/>
<line y1="-0.394048" x2="7.6408" y2="-0.394048" transform="matrix(-0.821589 0.570081 0.570082 0.821588 24.6309 48.0129)" stroke="#373634" stroke-width="0.788096"/>
<path d="M13.486 10.7957L5.4149 16.2406" stroke="#373634" stroke-width="0.788096"/>
<path d="M5.41504 16.27L7.52892 25.3365" stroke="#373634" stroke-width="0.788096"/>
<path d="M0.738491 30.8454L7.52798 25.3365" stroke="#373634" stroke-width="0.788096"/>
<path d="M0.738281 30.8455L6.49223 39.393" stroke="#373634" stroke-width="0.788096"/>
<path d="M6.56664 39.3009L4.26055 47.0518" stroke="#373634" stroke-width="0.788096"/>
<path d="M12.1406 47.9487L4.26161 47.116" stroke="#373634" stroke-width="0.788096"/>
<path d="M13.4856 10.7959L9.06571 32.383" stroke="#373634" stroke-width="0.788096"/>
<path d="M6.5 39.4517L9.06629 32.383" stroke="#373634" stroke-width="0.788096"/>
<path d="M7.52637 25.3232L12.1399 48.0128" stroke="#373634" stroke-width="0.788096"/>
<line y1="-0.394048" x2="20.1155" y2="-0.394048" transform="matrix(0.904386 0.426716 -0.426718 0.904385 6.43945 39.429)" stroke="#373634" stroke-width="0.788096"/>
<path d="M7.52832 25.3367L18.354 13.4861" stroke="#373634" stroke-width="0.788096"/>
<path d="M9.77013 8.74588L13.4854 10.7957" stroke="#373634" stroke-width="0.788096"/>
<path d="M13.5178 10.8041L18.3545 13.4861" stroke="#373634" stroke-width="0.788096"/>
</svg>
