<svg width="47" height="47" viewBox="0 0 47 47" fill="none" xmlns="http://www.w3.org/2000/svg">
<rect x="1.05062" y="0.7933" width="44.7354" height="44.7354" stroke="#373634" stroke-width="1.53289"/>
<rect x="6.06486" y="6.57902" width="33.9348" height="33.9348" stroke="#373634" stroke-width="0.766445"/>
<rect x="11.4633" y="11.206" width="23.91" height="23.91" rx="7.32816" stroke="#373634" stroke-width="0.766445"/>
<rect x="6.06486" y="6.57902" width="33.9348" height="33.9348" stroke="#373634" stroke-width="0.766445"/>
<line x1="27.0872" y1="11.2596" x2="46.3656" y2="0.463692" stroke="#373634" stroke-width="0.766445"/>
<line x1="35.4295" y1="18.3349" x2="46.2254" y2="0.598738" stroke="#373634" stroke-width="0.766445"/>
<line y1="-0.383222" x2="22.0955" y2="-0.383222" transform="matrix(-0.872506 -0.488603 -0.488603 0.872506 19.5625 11.594)" stroke="#373634" stroke-width="0.766445"/>
<line y1="-0.383222" x2="20.7635" y2="-0.383222" transform="matrix(-0.519947 -0.854199 -0.854199 0.519947 11.0801 18.5342)" stroke="#373634" stroke-width="0.766445"/>
<line y1="-0.383222" x2="22.0955" y2="-0.383222" transform="matrix(0.872506 0.488603 0.488603 -0.872506 27.2744 34.728)" stroke="#373634" stroke-width="0.766445"/>
<line y1="-0.383222" x2="20.7635" y2="-0.383222" transform="matrix(0.519947 0.854199 0.854199 -0.519947 35.7568 27.7878)" stroke="#373634" stroke-width="0.766445"/>
<line x1="19.7497" y1="35.0624" x2="0.471281" y2="45.8583" stroke="#373634" stroke-width="0.766445"/>
<line x1="11.4074" y1="27.9871" x2="0.611487" y2="45.7233" stroke="#373634" stroke-width="0.766445"/>
</svg>
