<svg width="47" height="48" viewBox="0 0 47 48" fill="none" xmlns="http://www.w3.org/2000/svg">
<path d="M45.5779 24.0203C45.5779 36.3691 35.5672 46.3799 23.2184 46.3799C10.8696 46.3799 0.858908 36.3691 0.858908 24.0203C0.858908 11.6714 10.8696 1.66067 23.2184 1.66067C35.5672 1.66067 45.5779 11.6714 45.5779 24.0203Z" stroke="#373634" stroke-width="1.54204"/>
<line x1="23.1774" y1="1.95757" x2="16.1437" y2="10.0315" stroke="#373634" stroke-width="0.771018"/>
<line x1="15.8542" y1="38.5112" x2="6.61475" y2="38.5268" stroke="#373634" stroke-width="0.771018"/>
<line x1="23.4944" y1="2.04762" x2="31.3409" y2="10.0723" stroke="#373634" stroke-width="0.771018"/>
<line x1="22.9303" y1="46.2377" x2="15.9663" y2="38.3814" stroke="#373634" stroke-width="0.771018"/>
<line x1="22.9337" y1="46.2229" x2="30.4416" y2="37.9779" stroke="#373634" stroke-width="0.771018"/>
<line x1="5.95927" y1="10.0391" x2="15.8559" y2="10.1217" stroke="#373634" stroke-width="0.771018"/>
<line x1="5.97719" y1="10.3468" x2="7.79212" y2="19.1563" stroke="#373634" stroke-width="0.771018"/>
<line x1="31.6927" y1="10.1395" x2="7.54799" y2="19.0964" stroke="#373634" stroke-width="0.771018"/>
<line y1="-0.385509" x2="25.2557" y2="-0.385509" transform="matrix(-0.917409 -0.397946 0.397944 -0.91741 39.0225 19.8286)" stroke="#373634" stroke-width="0.771018"/>
<line y1="-0.385509" x2="21.5801" y2="-0.385509" transform="matrix(-0.427721 0.903911 -0.903909 -0.427724 15.8525 9.77832)" stroke="#373634" stroke-width="0.771018"/>
<line x1="30.588" y1="38.1179" x2="6.96583" y2="29.0958" stroke="#373634" stroke-width="0.771018"/>
<line y1="-0.385509" x2="24.9166" y2="-0.385509" transform="matrix(-0.942427 0.334413 -0.334411 -0.942427 39.335 29.7932)" stroke="#373634" stroke-width="0.771018"/>
<line y1="-0.385509" x2="20.7084" y2="-0.385509" transform="matrix(0.397361 0.917663 -0.917661 0.397363 7.41406 19.2341)" stroke="#373634" stroke-width="0.771018"/>
<line x1="6.40835" y1="38.0996" x2="7.02953" y2="28.959" stroke="#373634" stroke-width="0.771018"/>
<line x1="0.819946" y1="23.7011" x2="7.88635" y2="18.915" stroke="#373634" stroke-width="0.771018"/>
<line x1="1.30052" y1="23.7397" x2="6.88722" y2="29.0042" stroke="#373634" stroke-width="0.771018"/>
<line x1="30.1456" y1="37.8524" x2="41.1055" y2="38.3559" stroke="#373634" stroke-width="0.771018"/>
<line x1="40.8174" y1="10.1638" x2="31.0652" y2="10.1636" stroke="#373634" stroke-width="0.771018"/>
<line x1="40.5946" y1="10.4786" x2="39.1934" y2="20.3851" stroke="#373634" stroke-width="0.771018"/>
<line x1="31.4239" y1="10.2024" x2="39.1702" y2="30.1809" stroke="#373634" stroke-width="0.771018"/>
<line x1="39.1585" y1="19.9966" x2="30.4755" y2="37.9258" stroke="#373634" stroke-width="0.771018"/>
<line y1="-0.385509" x2="9.11774" y2="-0.385509" transform="matrix(-0.192308 -0.981335 0.981334 -0.192309 41.0889 38.741)" stroke="#373634" stroke-width="0.771018"/>
<line x1="44.9483" y1="23.7858" x2="38.8245" y2="20.1164" stroke="#373634" stroke-width="0.771018"/>
<line x1="45.4183" y1="24.2936" x2="39.083" y2="30.5937" stroke="#373634" stroke-width="0.771018"/>
</svg>
