<svg width="34" height="24" viewBox="0 0 34 24" fill="none" xmlns="http://www.w3.org/2000/svg">
<rect x="0.5" y="0.5" width="33" height="23" rx="3.5" fill="white"/>
<rect x="0.5" y="0.5" width="33" height="23" rx="3.5" stroke="#F5F5F5"/>
<path d="M8.8796 8.79785H4.12156C3.50193 8.79785 3 9.30441 3 9.92867V14.727C3 15.3513 3.50193 15.8579 4.12156 15.8579H8.8796C9.49923 15.8579 10.0005 15.3513 10.0005 14.727V9.92867C10.0012 9.30374 9.49923 8.79785 8.8796 8.79785Z" fill="#1677FF"/>
<path d="M8.76386 13.231C8.48413 13.1364 8.10785 12.9916 7.68925 12.8389C7.94054 12.3978 8.14158 11.8958 8.27384 11.3503H6.89371V10.849H8.58398V10.5693H6.89371V9.7334H6.20397C6.08296 9.7334 6.08296 9.85376 6.08296 9.85376V10.5686H4.3735V10.8483H6.08296V11.3496H4.67109V11.6293H7.40886C7.309 11.9772 7.1741 12.3045 7.01472 12.6014C6.1266 12.3058 5.1783 12.0665 4.58313 12.2139C4.20223 12.3085 3.95689 12.4771 3.81272 12.6543C3.15143 13.4658 3.62558 14.6984 5.02224 14.6984C5.8482 14.6984 6.64374 14.2342 7.26007 13.4691C8.17993 13.9148 10.0005 14.6806 10.0005 14.6806V13.5894C10.0011 13.5894 9.77234 13.5709 8.76386 13.231ZM4.89196 14.2269C3.8028 14.2269 3.48075 13.3619 4.01905 12.8884C4.19892 12.7284 4.52692 12.6504 4.70151 12.6332C5.34826 12.569 5.94739 12.8177 6.65432 13.1655C6.15768 13.8189 5.52482 14.2269 4.89196 14.2269Z" fill="white"/>
<path d="M18.2012 9.83174C18.2012 10.1968 18.4684 10.4428 18.8407 10.4428C19.213 10.4428 19.4802 10.1968 19.4802 9.83174C19.4802 9.47332 19.213 9.2207 18.8407 9.2207C18.4684 9.2207 18.2012 9.47332 18.2012 9.83174Z" fill="#1677FF"/>
<path d="M17.5267 9.37402H16.4171V14.5017H17.5267V9.37402Z" fill="black"/>
<path d="M14.4715 9.55078H12.9823L11.3178 14.5032H12.3435L12.6245 13.5338H14.3875L14.6547 14.5032H15.968L14.4715 9.55078ZM12.856 12.7257L13.5159 10.4429H13.5437L14.1686 12.7257H12.856Z" fill="black"/>
<path d="M19.3955 10.7373H18.2859V14.5027H19.3955V10.7373Z" fill="black"/>
<path d="M30.9934 10.7446L31 10.7373H29.9538L29.2932 13.0274H29.2581L28.4996 10.7373H27.2564L28.7523 14.5166L28.1273 15.6686V15.6964H29.1034L30.9934 10.7446Z" fill="black"/>
<path d="M22.1565 10.6602C21.7491 10.6602 21.433 10.8149 21.0746 11.1098V10.7375H19.9649V15.6966H21.0746V14.4672C21.2855 14.5235 21.4819 14.5519 21.7207 14.5519C22.7113 14.5519 23.6034 13.8212 23.6034 12.5217C23.6034 11.3558 22.9573 10.6602 22.1565 10.6602ZM21.4535 13.8562C21.3272 13.8562 21.2075 13.8423 21.0739 13.8V11.7632C21.306 11.6018 21.4952 11.5245 21.7339 11.5245C22.1485 11.5245 22.4785 11.8545 22.4785 12.5574C22.4792 13.4561 21.9944 13.8562 21.4535 13.8562Z" fill="black"/>
<path d="M27.0382 13.5613V11.988C27.0382 11.131 26.5323 10.6602 25.6402 10.6602C25.0708 10.6602 24.678 10.7587 23.9612 10.9763L24.1576 11.8406C24.8109 11.5456 25.0986 11.4193 25.4008 11.4193C25.7658 11.4193 25.9278 11.6792 25.9278 12.08V12.1077C24.6562 12.3465 24.2627 12.48 24.0174 12.726C23.8348 12.9086 23.7575 13.1685 23.7575 13.4707C23.7575 14.1941 24.3196 14.5803 24.846 14.5803C25.2394 14.5803 25.5555 14.4329 25.9841 14.1095L26.0614 14.503H27.1711L27.0382 13.5613ZM25.9285 13.5897C25.6336 13.7511 25.4649 13.8145 25.2685 13.8145C25.0014 13.8145 24.8327 13.6386 24.8327 13.3582C24.8327 13.2531 24.8539 13.1473 24.9379 13.0633C25.0715 12.9297 25.3314 12.8312 25.9285 12.691V13.5897Z" fill="black"/>
</svg>
