<svg width="34" height="24" viewBox="0 0 34 24" fill="none" xmlns="http://www.w3.org/2000/svg">
<rect x="0.5" y="0.5" width="33" height="23" rx="3.5" fill="white"/>
<rect x="0.5" y="0.5" width="33" height="23" rx="3.5" stroke="#F5F5F5"/>
<path d="M10.5184 5.00098H15.8766C16.6245 5.00098 17.0897 5.62855 16.9152 6.40106L14.4206 17.4264C14.2446 18.1962 13.4957 18.8244 12.7472 18.8244H7.38956C6.64265 18.8244 6.1764 18.1962 6.35089 17.4264L8.84655 6.40106C9.02103 5.62855 9.76951 5.00098 10.5184 5.00098Z" fill="#E21836"/>
<path d="M15.4304 5H21.5922C22.34 5 22.0028 5.62758 21.8269 6.40009L19.3326 17.4255C19.1576 18.1953 19.2122 18.8234 18.4628 18.8234H12.3011C11.5517 18.8234 11.0879 18.1953 11.2639 17.4255L13.758 6.40009C13.9351 5.62758 14.682 5 15.4304 5Z" fill="#00447C"/>
<path d="M21.3479 5H26.7061C27.4551 5 27.9203 5.62758 27.7443 6.40009L25.2501 17.4255C25.0741 18.1953 24.3247 18.8234 23.5758 18.8234H18.2201C17.4707 18.8234 17.0059 18.1953 17.1814 17.4255L19.6761 6.40009C19.8505 5.62758 20.5985 5 21.3479 5Z" fill="#007B84"/>
<path d="M11.9175 8.53314C11.3665 8.53892 11.2038 8.53314 11.1518 8.5205C11.1318 8.61824 10.76 10.3839 10.7589 10.3854C10.6789 10.7426 10.6206 10.9972 10.4228 11.1616C10.3104 11.2572 10.1793 11.3033 10.0273 11.3033C9.78294 11.3033 9.64058 11.1784 9.61668 10.9415L9.61211 10.8602C9.61211 10.8602 9.68656 10.3817 9.68656 10.379C9.68656 10.379 10.0768 8.77003 10.1467 8.55734C10.1503 8.54524 10.1514 8.53892 10.1523 8.53314C9.3927 8.54 9.25805 8.53314 9.24878 8.5205C9.24369 8.53784 9.22488 8.6376 9.22488 8.6376L8.82642 10.4511L8.7922 10.6049L8.72598 11.108C8.72598 11.2572 8.75445 11.379 8.81113 11.482C8.99267 11.8086 9.5105 11.8575 9.80344 11.8575C10.1809 11.8575 10.5349 11.775 10.7742 11.6242C11.1895 11.3716 11.2982 10.9768 11.3951 10.6259L11.44 10.4459C11.44 10.4459 11.842 8.77473 11.9103 8.55734C11.9129 8.54524 11.914 8.53892 11.9175 8.53314ZM13.2852 9.88125C13.1883 9.88125 13.0112 9.90545 12.8522 9.98571C12.7944 10.0162 12.7398 10.0515 12.6823 10.0865L12.7342 9.89335L12.7058 9.86081C12.3684 9.93113 12.2929 9.94054 11.9813 9.98571L11.9552 10.0036C11.919 10.3124 11.8869 10.5446 11.7528 11.1516C11.7017 11.3753 11.6487 11.6012 11.5955 11.8243L11.6099 11.8527C11.9292 11.8354 12.0261 11.8354 12.3036 11.8401L12.3261 11.8149C12.3614 11.629 12.3659 11.5854 12.444 11.2089C12.4807 11.0303 12.5573 10.638 12.595 10.4983C12.6644 10.4653 12.7328 10.4327 12.7981 10.4327C12.9536 10.4327 12.9347 10.5724 12.9287 10.6281C12.922 10.7215 12.8654 11.0267 12.8072 11.2887L12.7684 11.4579C12.7414 11.5828 12.7118 11.7042 12.6847 11.828L12.6965 11.8527C13.0112 11.8354 13.1072 11.8354 13.376 11.8401L13.4076 11.8149C13.4562 11.5245 13.4704 11.4468 13.5566 11.024L13.6 10.8297C13.6842 10.4495 13.7265 10.2567 13.6628 10.0997C13.5954 9.92373 13.4337 9.88125 13.2852 9.88125ZM14.8132 10.2793C14.6459 10.3124 14.5392 10.3344 14.4331 10.3487C14.328 10.366 14.2255 10.3818 14.0638 10.4049L14.051 10.4169L14.0392 10.4264C14.0224 10.5504 14.0106 10.6575 13.9883 10.7835C13.9694 10.9138 13.9402 11.0618 13.8928 11.2745C13.8561 11.4373 13.8372 11.494 13.8163 11.5513C13.7959 11.6086 13.7735 11.6642 13.7322 11.8243L13.7418 11.8391L13.7499 11.8527C13.901 11.8453 13.9999 11.8401 14.1015 11.8391C14.203 11.8354 14.3081 11.8391 14.4709 11.8401L14.4851 11.8281L14.5004 11.8149C14.5239 11.6705 14.5274 11.6317 14.5418 11.5612C14.556 11.4857 14.5806 11.3811 14.6408 11.1017C14.6692 10.9705 14.701 10.8397 14.7305 10.7058C14.7612 10.5724 14.7933 10.4411 14.8239 10.3098L14.8193 10.294L14.8132 10.2793ZM14.8167 9.7426C14.6647 9.65024 14.3979 9.67954 14.2183 9.80713C14.0393 9.93216 14.0189 10.1096 14.1704 10.2032C14.3198 10.293 14.5877 10.2663 14.7657 10.1376C14.9443 10.0099 14.9667 9.83402 14.8167 9.7426ZM15.7361 11.8816C16.0437 11.8816 16.3589 11.7944 16.5962 11.5355C16.7788 11.3255 16.8625 11.013 16.8915 10.8844C16.986 10.4579 16.9124 10.2588 16.8201 10.1375C16.6798 9.95266 16.4319 9.89338 16.1748 9.89338C16.0202 9.89338 15.6519 9.90911 15.3641 10.1822C15.1575 10.3791 15.0621 10.6464 15.0045 10.9026C14.9464 11.1637 14.8795 11.6337 15.2994 11.8086C15.4289 11.8659 15.6157 11.8816 15.7361 11.8816ZM15.7121 10.9221C15.783 10.5992 15.8667 10.3282 16.0804 10.3282C16.2478 10.3282 16.2599 10.5298 16.1855 10.8538C16.1722 10.9258 16.1111 11.1932 16.0284 11.307C15.9707 11.3911 15.9024 11.442 15.8269 11.442C15.8044 11.442 15.6708 11.442 15.6687 11.2378C15.6677 11.137 15.6876 11.034 15.7121 10.9221ZM17.6604 11.8401L17.6844 11.815C17.7185 11.629 17.7241 11.5853 17.7996 11.2089C17.8373 11.0304 17.9154 10.6381 17.9521 10.4984C18.0216 10.4652 18.0889 10.4326 18.1563 10.4326C18.3108 10.4326 18.292 10.5723 18.2858 10.628C18.2802 10.7216 18.2235 11.0266 18.1644 11.2886L18.1277 11.4578C18.0996 11.5828 18.069 11.7041 18.042 11.828L18.0538 11.8528C18.3695 11.8354 18.4619 11.8354 18.7322 11.8401L18.7649 11.815C18.8123 11.5244 18.8251 11.4467 18.9139 11.0241L18.9562 10.8296C19.0408 10.4494 19.0837 10.2568 19.021 10.0998C18.9516 9.92377 18.7889 9.88129 18.6425 9.88129C18.5455 9.88129 18.3675 9.90535 18.2093 9.98575C18.1528 10.0163 18.0961 10.0514 18.0404 10.0866L18.0889 9.89339L18.0629 9.86072C17.7257 9.93117 17.6486 9.94058 17.3374 9.98575L17.3135 10.0036C17.2758 10.3124 17.2451 10.5445 17.1109 11.1516C17.0599 11.3753 17.0069 11.6012 16.9538 11.8244L16.9681 11.8528C17.2879 11.8354 17.3834 11.8354 17.6604 11.8401ZM19.9806 11.8527C20.0004 11.7529 20.1184 11.1617 20.1194 11.1617C20.1194 11.1617 20.2198 10.7278 20.226 10.7121C20.226 10.7121 20.2576 10.6669 20.2892 10.649H20.3357C20.7744 10.649 21.2697 10.649 21.658 10.355C21.9222 10.1533 22.1029 9.85554 22.1834 9.49362C22.2043 9.40489 22.2197 9.29935 22.2197 9.19382C22.2197 9.05521 22.1927 8.91807 22.1146 8.81092C21.9166 8.52577 21.5223 8.52053 21.0672 8.51838C21.0657 8.51838 20.8428 8.52053 20.8428 8.52053C20.2602 8.52792 20.0266 8.52577 19.9306 8.51367C19.9225 8.55737 19.9072 8.63507 19.9072 8.63507C19.9072 8.63507 19.6985 9.63076 19.6985 9.63237C19.6985 9.63237 19.1991 11.7493 19.1756 11.8491C19.6842 11.8427 19.8928 11.8427 19.9806 11.8527ZM20.3673 10.084C20.3673 10.084 20.5892 9.0903 20.5881 9.09406L20.5953 9.04311L20.5985 9.00425L20.6871 9.01366C20.6871 9.01366 21.1448 9.05413 21.1555 9.05521C21.3361 9.12713 21.4105 9.31253 21.3586 9.55453C21.3111 9.77568 21.1718 9.96162 20.9927 10.0514C20.8453 10.1275 20.6647 10.1338 20.4786 10.1338H20.3582L20.3673 10.084ZM21.7488 10.9405C21.6902 11.1979 21.6228 11.6679 22.0406 11.8354C22.1738 11.8937 22.2932 11.9111 22.4145 11.9048C22.5426 11.8976 22.6614 11.8315 22.7713 11.7363C22.7614 11.7754 22.7515 11.8145 22.7415 11.8538L22.7605 11.8789C23.061 11.8659 23.1542 11.8659 23.4798 11.8685L23.5094 11.8453C23.5569 11.5576 23.6017 11.2783 23.7252 10.7278C23.7854 10.4642 23.8455 10.2031 23.9073 9.94055L23.8976 9.91165C23.5615 9.97578 23.4716 9.98949 23.1482 10.0367L23.1237 10.0572C23.1204 10.084 23.117 10.1097 23.1139 10.1354C23.0636 10.0517 22.9907 9.98035 22.8783 9.93585C22.7345 9.87763 22.3968 9.95265 22.1064 10.2248C21.9024 10.419 21.8045 10.6852 21.7488 10.9405ZM22.4549 10.9563C22.5268 10.6391 22.6095 10.3708 22.8237 10.3708C22.9591 10.3708 23.0304 10.4994 23.0159 10.7188C23.0044 10.7736 22.992 10.8312 22.9773 10.8964C22.9559 10.9907 22.9326 11.0841 22.91 11.1777C22.887 11.2417 22.8603 11.3021 22.8309 11.3422C22.7758 11.4226 22.6446 11.4725 22.5692 11.4725C22.5477 11.4725 22.4156 11.4725 22.411 11.2719C22.41 11.172 22.4299 11.0692 22.4549 10.9563ZM26.1418 9.90908L26.1158 9.87856C25.7832 9.94793 25.723 9.95896 25.4174 10.0014L25.3949 10.0246C25.3939 10.0283 25.393 10.0341 25.3914 10.0394L25.3903 10.0341C25.1628 10.5744 25.1695 10.4579 24.9843 10.8832C24.9833 10.8639 24.9833 10.8518 24.9822 10.8312L24.9358 9.90908L24.9067 9.87856C24.5583 9.94793 24.55 9.95896 24.2282 10.0014L24.2032 10.0246C24.1996 10.0356 24.1996 10.0477 24.1976 10.0609L24.1996 10.0656C24.2399 10.2772 24.2302 10.23 24.2706 10.5639C24.2894 10.7278 24.3144 10.8927 24.3333 11.0545C24.365 11.3254 24.3827 11.4588 24.4215 11.8722C24.2042 12.2414 24.1528 12.3811 23.9435 12.7051L23.945 12.7083L23.7977 12.9482C23.7808 12.9734 23.7655 12.9908 23.7441 12.9982C23.7206 13.0101 23.69 13.0123 23.6476 13.0123H23.566L23.4446 13.4277L23.8609 13.4351C24.1052 13.434 24.2588 13.3164 24.3415 13.1583L24.6032 12.6966H24.599L24.6266 12.6641C24.8026 12.2739 26.1418 9.90908 26.1418 9.90908ZM21.7488 15.3651H21.5723L22.2258 13.1399H22.4426L22.5114 12.9107L22.5181 13.1656C22.51 13.3232 22.6304 13.4629 22.9467 13.4397H23.3125L23.4384 13.0113H23.3008C23.2216 13.0113 23.1849 12.9907 23.1895 12.9466L23.1828 12.6873H22.5054V12.6886C22.2864 12.6933 21.6323 12.7103 21.4999 12.7466C21.3397 12.789 21.1708 12.9141 21.1708 12.9141L21.2371 12.6846H20.6035L20.4714 13.1399L19.8091 15.3991H19.6806L19.5546 15.8245H20.8167L20.7744 15.9663H21.3963L21.4376 15.8245H21.6121L21.7488 15.3651ZM21.231 13.5921C21.1295 13.621 20.9407 13.7086 20.9407 13.7086L21.1086 13.1399H21.6121L21.4906 13.5543C21.4906 13.5543 21.3351 13.5637 21.231 13.5921ZM21.2407 14.4045C21.2407 14.4045 21.0825 14.4249 20.9784 14.4491C20.8759 14.4811 20.6836 14.582 20.6836 14.582L20.8571 13.9901H21.3632L21.2407 14.4045ZM20.9586 15.3703H20.4535L20.5999 14.8709H21.1034L20.9586 15.3703ZM22.1748 13.9901H22.9028L22.7982 14.3389H22.0605L21.9498 14.7202H22.5952L22.1065 15.4286C22.0723 15.4806 22.0416 15.499 22.0075 15.5137C21.9733 15.5315 21.9284 15.5525 21.8764 15.5525H21.6973L21.5743 15.9701H22.0426C22.2861 15.9701 22.4299 15.8561 22.536 15.7064L22.8712 15.2343L22.9431 15.7137C22.9584 15.8035 23.0211 15.8561 23.0635 15.8765C23.1104 15.9007 23.1589 15.9423 23.2273 15.9484C23.3007 15.9517 23.3537 15.9542 23.389 15.9542H23.6191L23.7573 15.4869H23.6665C23.6144 15.4869 23.5247 15.4779 23.5094 15.4611C23.4941 15.4407 23.4941 15.4092 23.4859 15.3613L23.4129 14.8808H23.114L23.2451 14.7202H23.9813L24.0945 14.3389H23.4129L23.5191 13.9901H24.1986L24.3246 13.5601H22.2987L22.1748 13.9901ZM16.0263 15.4674L16.1962 14.8856H16.8946L17.0222 14.4528H16.3232L16.4299 14.0947H17.1129L17.2395 13.6756H15.5304L15.4065 14.0947H15.7948L15.6912 14.4528H15.3019L15.1728 14.893H15.561L15.3345 15.6628C15.304 15.7647 15.3489 15.8036 15.3774 15.8509C15.4065 15.897 15.436 15.9275 15.5024 15.9449C15.5708 15.9606 15.6177 15.97 15.6814 15.97H16.4687L16.6089 15.4906L16.26 15.5399C16.1926 15.5399 16.006 15.5316 16.0263 15.4674ZM16.1064 12.682L15.9295 13.0112C15.8916 13.0831 15.8575 13.1278 15.8268 13.1483C15.7998 13.1657 15.7462 13.1729 15.6686 13.1729H15.5763L15.4529 13.5941H15.7595C15.907 13.5941 16.0202 13.5385 16.0743 13.5107C16.1324 13.4787 16.1477 13.4969 16.1926 13.4523L16.2962 13.36H17.2538L17.3808 12.9214H16.6799L16.8023 12.682H16.1064ZM17.5201 15.4759C17.5038 15.4517 17.5155 15.4091 17.5405 15.3204L17.8022 14.4286H18.7333C18.869 14.4266 18.9669 14.425 19.0306 14.4203C19.0991 14.4129 19.1735 14.3877 19.2546 14.3426C19.3383 14.2952 19.3812 14.2453 19.4174 14.1881C19.4577 14.1309 19.5225 14.0059 19.5781 13.8131L19.9071 12.6846L18.9409 12.6904C18.9409 12.6904 18.6434 12.7356 18.5124 12.7854C18.3802 12.8411 18.1914 12.9965 18.1914 12.9965L18.2786 12.6872H17.6818L16.8462 15.5399C16.8166 15.6507 16.7967 15.7311 16.7921 15.7793C16.7906 15.8314 16.8559 15.8829 16.8982 15.9217C16.9482 15.9606 17.0221 15.9542 17.093 15.9606C17.1676 15.9663 17.2737 15.97 17.4201 15.97H17.8787L18.0195 15.4806L17.6089 15.5205C17.565 15.5205 17.5333 15.4963 17.5201 15.4759ZM17.9711 13.8263H18.949L18.8868 14.0269C18.8781 14.0316 18.8572 14.0169 18.7577 14.029H17.9109L17.9711 13.8263ZM18.167 13.1535H19.1531L19.0822 13.3951C19.0822 13.3951 18.6174 13.3904 18.543 13.4045C18.2154 13.4629 18.0241 13.643 18.0241 13.643L18.167 13.1535ZM18.9087 14.6986C18.9006 14.7286 18.8878 14.7469 18.8699 14.7606C18.8501 14.7737 18.818 14.7785 18.77 14.7785H18.6307L18.6389 14.5342H18.0593L18.0358 15.7284C18.0349 15.8146 18.043 15.8645 18.1042 15.9044C18.1655 15.9543 18.3542 15.9606 18.6082 15.9606H18.9714L19.1025 15.5136L18.7864 15.5315L18.6812 15.5378C18.6669 15.5315 18.6531 15.5257 18.6379 15.51C18.6245 15.4964 18.6021 15.5047 18.6057 15.4185L18.6082 15.1124L18.9398 15.0983C19.1189 15.0983 19.1954 15.0383 19.2607 14.9812C19.323 14.9265 19.3434 14.8636 19.3669 14.7785L19.4225 14.5074H18.9669L18.9087 14.6986Z" fill="#FEFEFE"/>
</svg>
