<svg width="16" height="18" viewBox="0 0 16 18" fill="none" xmlns="http://www.w3.org/2000/svg">
<path d="M3 1.08329C3 0.853176 3.18654 0.666626 3.41667 0.666626C3.64679 0.666626 3.83333 0.853176 3.83333 1.08329V3.58329C3.83333 3.81342 3.64679 3.99996 3.41667 3.99996C3.18654 3.99996 3 3.81342 3 3.58329V1.08329Z" fill="#FAF9F9"/>
<path d="M9.66699 1.08329C9.66699 0.853176 9.85353 0.666626 10.0837 0.666626C10.3138 0.666626 10.5003 0.853176 10.5003 1.08329V3.58329C10.5003 3.81342 10.3138 3.99996 10.0837 3.99996C9.85353 3.99996 9.66699 3.81342 9.66699 3.58329V1.08329Z" fill="#FAF9F9"/>
<path fill-rule="evenodd" clip-rule="evenodd" d="M3.83366 8.58321H3.00033V9.41654H3.83366V8.58321ZM3.00033 7.74988C2.54008 7.74988 2.16699 8.12296 2.16699 8.58321V9.41654C2.16699 9.87679 2.54008 10.2499 3.00033 10.2499H3.83366C4.29391 10.2499 4.66699 9.87679 4.66699 9.41654V8.58321C4.66699 8.12296 4.29391 7.74988 3.83366 7.74988H3.00033Z" fill="#FAF9F9"/>
<path fill-rule="evenodd" clip-rule="evenodd" d="M7.16667 8.58321H6.33333V9.41654H7.16667V8.58321ZM6.33333 7.74988C5.87308 7.74988 5.5 8.12296 5.5 8.58321V9.41654C5.5 9.87679 5.87308 10.2499 6.33333 10.2499H7.16667C7.62692 10.2499 8 9.87679 8 9.41654V8.58321C8 8.12296 7.62692 7.74988 7.16667 7.74988H6.33333Z" fill="#FAF9F9"/>
<path fill-rule="evenodd" clip-rule="evenodd" d="M10.5002 8.58321H9.66683V9.41654H10.5002V8.58321ZM9.66683 7.74988C9.20658 7.74988 8.8335 8.12296 8.8335 8.58321V9.41654C8.8335 9.87679 9.20658 10.2499 9.66683 10.2499H10.5002C10.9604 10.2499 11.3335 9.87679 11.3335 9.41654V8.58321C11.3335 8.12296 10.9604 7.74988 10.5002 7.74988H9.66683Z" fill="#FAF9F9"/>
<path fill-rule="evenodd" clip-rule="evenodd" d="M3.83366 11.9166H3.00033V12.7499H3.83366V11.9166ZM3.00033 11.0833C2.54008 11.0833 2.16699 11.4563 2.16699 11.9166V12.7499C2.16699 13.2102 2.54008 13.5833 3.00033 13.5833H3.83366C4.29391 13.5833 4.66699 13.2102 4.66699 12.7499V11.9166C4.66699 11.4563 4.29391 11.0833 3.83366 11.0833H3.00033Z" fill="#FAF9F9"/>
<path fill-rule="evenodd" clip-rule="evenodd" d="M7.16667 11.9166H6.33333V12.7499H7.16667V11.9166ZM6.33333 11.0833C5.87308 11.0833 5.5 11.4563 5.5 11.9166V12.7499C5.5 13.2102 5.87308 13.5833 6.33333 13.5833H7.16667C7.62692 13.5833 8 13.2102 8 12.7499V11.9166C8 11.4563 7.62692 11.0833 7.16667 11.0833H6.33333Z" fill="#FAF9F9"/>
<path fill-rule="evenodd" clip-rule="evenodd" d="M1.75016 3.16659H11.7502C12.2104 3.16659 12.5835 3.53967 12.5835 3.99992V10.6666C12.8712 10.6666 13.1505 10.703 13.4168 10.7716V3.99992C13.4168 3.07944 12.6706 2.33325 11.7502 2.33325H1.75016C0.829688 2.33325 0.0834961 3.07944 0.0834961 3.99992V13.9999C0.0834961 14.9204 0.829688 15.6666 1.75016 15.6666H9.69612C9.54691 15.4087 9.43129 15.1289 9.35516 14.8333H1.75016C1.28993 14.8333 0.916829 14.4602 0.916829 13.9999V3.99992C0.916829 3.53967 1.28993 3.16659 1.75016 3.16659Z" fill="#FAF9F9"/>
<path fill-rule="evenodd" clip-rule="evenodd" d="M13 6.91659H0.5V6.08325H13V6.91659Z" fill="#FAF9F9"/>
<path fill-rule="evenodd" clip-rule="evenodd" d="M12.5833 16.5C13.964 16.5 15.0833 15.3807 15.0833 14C15.0833 12.6193 13.964 11.5 12.5833 11.5C11.2026 11.5 10.0833 12.6193 10.0833 14C10.0833 15.3807 11.2026 16.5 12.5833 16.5ZM12.5833 17.3333C14.4243 17.3333 15.9167 15.8409 15.9167 14C15.9167 12.159 14.4243 10.6666 12.5833 10.6666C10.7424 10.6666 9.25 12.159 9.25 14C9.25 15.8409 10.7424 17.3333 12.5833 17.3333Z" fill="#FAF9F9"/>
<path fill-rule="evenodd" clip-rule="evenodd" d="M12.5837 11.9911C12.8138 11.9911 13.0003 12.1776 13.0003 12.4078V14.1986L14.0218 14.9077C14.2108 15.0389 14.2577 15.2985 14.1265 15.4875C13.9952 15.6766 13.7356 15.7235 13.5466 15.5923L12.167 14.6346V12.4078C12.167 12.1776 12.3535 11.9911 12.5837 11.9911Z" fill="#FAF9F9"/>
</svg>
