<svg width="121" height="38" viewBox="0 0 121 38" fill="none" xmlns="http://www.w3.org/2000/svg">
<path d="M4.94489 7.45242V7.27612H8.99388C10.3228 7.27612 11.4285 7.48353 12.3161 7.90351C13.1986 8.32349 13.9046 8.86273 14.4289 9.51601C14.9531 10.1745 15.3217 10.9108 15.5398 11.7197C15.7578 12.5337 15.8668 13.327 15.8668 14.0996C15.8668 14.8721 15.7578 15.6654 15.5398 16.4691C15.3217 17.2728 14.9479 18.009 14.4184 18.6624C13.8891 19.3209 13.183 19.8549 12.3058 20.2697C11.4285 20.6845 10.3228 20.8867 8.99388 20.8867H5.73911V7.77389L4.94489 7.44723V7.45242ZM6.93823 7.64426V20.5445H8.98869C10.1255 20.5445 11.0495 20.3475 11.7555 19.9535C12.4666 19.5594 13.0221 19.0513 13.4322 18.4239C13.8371 17.7964 14.1174 17.1017 14.2627 16.3343C14.4133 15.5669 14.486 14.8151 14.486 14.0788C14.486 13.3425 14.4081 12.5752 14.2524 11.8182C14.0967 11.056 13.8112 10.3664 13.4011 9.74932C12.9858 9.13236 12.4251 8.62422 11.714 8.23017C11.0028 7.8361 10.0944 7.63908 8.9835 7.63908H6.93304L6.93823 7.64426Z" fill="#FAF9F9"/>
<path d="M12.9131 14.1721H12.4044L7.61829 20.2541H8.15297L12.9131 14.1721Z" fill="#FAF9F9"/>
<path d="M6.8399 21.9756L7.45763 21.1823H6.92295L4.65967 24.0547V14.2136H2.25104V14.4262L3.18024 14.8152V30.5152H4.65967V24.7288L5.96262 23.0852L12.0569 30.5152L13.7959 30.4945L6.8399 21.9756Z" fill="#FAF9F9"/>
<path d="M0.953103 29.2138V9.74419C0.953103 6.08359 3.85487 2.98297 7.75852 2.08078V1.93042C3.46036 2.57336 0.158875 5.83989 0.158875 9.74419V29.2138C0.158875 33.1181 3.45517 36.3794 7.75852 37.0276V36.8772C3.84968 35.9751 0.953103 32.8744 0.953103 29.2138Z" fill="#FAF9F9"/>
<path d="M17.1647 29.2138V9.74419C17.1647 6.08359 14.2629 2.98297 10.3592 2.08078V1.93042C14.6574 2.57336 17.9589 5.83989 17.9589 9.74419V29.2138C17.9589 33.1181 14.6625 36.3794 10.3592 37.0276V36.8772C14.268 35.9751 17.1647 32.8744 17.1647 29.2138Z" fill="#FAF9F9"/>
<path d="M9.79878 2.05494L9.42503 1.4794L9.05646 0.898682L8.6879 1.4794L8.31934 2.05494V2.06012L8.6879 2.63566L9.05646 3.21638L9.42503 2.63566L9.79878 2.06012V2.05494Z" fill="#FAF9F9"/>
<path d="M9.79878 36.8565L9.42503 36.2758L9.05646 35.6951L8.6879 36.2758L8.31934 36.8565L8.6879 37.4372L9.05646 38.0179L9.42503 37.4372L9.79878 36.8565Z" fill="#FAF9F9"/>
<path d="M32.26 10.1463C31.7876 9.55514 31.1439 9.06256 30.3497 8.68406C29.5554 8.30555 28.5484 8.1189 27.3545 8.1189H23.6688V8.40407L24.3749 8.69962V20.4177H27.3545C28.5484 20.4177 29.5503 20.231 30.3393 19.8577C31.1284 19.4844 31.7721 18.997 32.2496 18.4059C32.7271 17.8148 33.0698 17.1459 33.2671 16.4201C33.4643 15.6993 33.563 14.9838 33.563 14.289C33.563 13.5943 33.4643 12.8735 33.2671 12.1477C33.0698 11.4165 32.7324 10.7477 32.26 10.1514V10.1463ZM32.1821 14.2631C32.1821 14.9112 32.1147 15.5801 31.9848 16.2593C31.8551 16.9282 31.6111 17.5452 31.2529 18.0948C30.9 18.6393 30.4068 19.0903 29.7891 19.4325C29.1713 19.7747 28.3511 19.9511 27.3597 19.9511H25.6103V8.60629H27.3597C28.3304 8.60629 29.135 8.7774 29.7579 9.12479C30.3756 9.46697 30.874 9.91807 31.2322 10.4521C31.5955 10.9914 31.8447 11.6032 31.9797 12.2721C32.1147 12.941 32.1873 13.615 32.1873 14.2735L32.1821 14.2631Z" fill="#FAF9F9"/>
<path d="M40.2751 8.11353H38.7282V8.34166L39.3823 8.69425L35.2606 20.4072H35.8056L36.9789 17.0473H42.2217L43.3793 20.4072H44.6511L40.2959 8.16537L40.2751 8.11353ZM42.0608 16.5962H37.1346L39.5951 9.48238L42.0608 16.5962Z" fill="#FAF9F9"/>
<path d="M49.0061 13.9311L45.5956 8.11353H43.6594V8.34166L44.4951 8.78239L48.0146 14.6777V20.4072H49.2189V14.4911L52.8008 8.23278L52.8682 8.11353H52.3439L49.0061 13.9311Z" fill="#FAF9F9"/>
<path d="M67.471 8.23797L67.5696 8.11353H66.9882L61.3404 15.2947V8.11353H59.3885V8.3987L60.079 8.69425V20.4072H61.3404V16.0466L62.228 14.9215L66.7079 20.3812L66.7339 20.4072L68.2236 20.3916L62.9859 13.9674L67.471 8.23797Z" fill="#FAF9F9"/>
<path d="M74.9198 8.11353H73.3728V8.34166L74.0269 8.69425L69.9052 20.4072H70.4503L71.6234 17.0473H76.8664L78.024 20.4072H79.2958L74.9406 8.16537L74.9198 8.11353ZM76.7055 16.5962H71.7792L74.2397 9.48238L76.7055 16.5962Z" fill="#FAF9F9"/>
<path d="M85.7951 13.9779C86.3868 13.9001 86.8955 13.7082 87.3005 13.4075C87.7261 13.0912 88.048 12.7127 88.2504 12.2823C88.4476 11.852 88.5359 11.3905 88.5099 10.9083C88.4788 10.4261 88.3387 9.97498 88.0843 9.57061C87.8299 9.16616 87.4614 8.82395 86.9786 8.55433C86.4958 8.28471 85.8989 8.1499 85.1981 8.1499H80.6299V8.43508L81.3204 8.73062V20.4487H82.5662V14.0193H84.4609L87.9441 20.4124L87.9649 20.4539L88.7124 20.4383V20.4539H89.7142V20.1687L89.0342 19.8991L85.8055 13.9882L85.7951 13.9779ZM86.9059 12.2564C86.7243 12.6245 86.4491 12.9253 86.0858 13.1638C85.7275 13.4023 85.2708 13.5216 84.7205 13.5216H82.5559V8.62692H84.7205C85.2656 8.62692 85.7224 8.74618 86.0858 8.98469C86.4491 9.22319 86.7243 9.52908 86.9059 9.8921C87.0876 10.2602 87.181 10.6543 87.181 11.0743C87.181 11.4942 87.0876 11.8883 86.9059 12.2564Z" fill="#FAF9F9"/>
<path d="M98.752 8.23797L98.8506 8.11353H98.2739L92.6211 15.2947V8.11353H90.6693V8.3987L91.3597 8.69425V20.4072H92.6211V16.0466L93.5141 14.9215L97.9883 20.3812L98.0143 20.4072L99.5092 20.3916L94.2664 13.9674L98.752 8.23797Z" fill="#FAF9F9"/>
<path d="M106.201 8.11353H104.654V8.34166L105.308 8.69425L101.187 20.4072H101.732L102.905 17.0473H108.148L109.305 20.4072H110.577L106.222 8.16537L106.201 8.11353ZM107.987 16.5962H103.06L105.521 9.48238L107.987 16.5962Z" fill="#FAF9F9"/>
<path d="M113.857 19.9249V8.11353H111.905V8.3987L112.611 8.69425V20.4072H120.035V19.9249H113.857Z" fill="#FAF9F9"/>
<path d="M51.2229 26.3234L51.4513 26.4219V29.8544C51.4513 29.984 51.4358 30.0981 51.4046 30.1862C51.3735 30.2796 51.332 30.3522 51.2801 30.4092C51.2282 30.4663 51.171 30.5077 51.1036 30.5336C50.9427 30.5959 50.761 30.5855 50.5792 30.5077C50.4754 30.4611 50.3872 30.3936 50.3197 30.3107L50.2782 30.2588L50.1121 30.3936L50.1536 30.4454C50.247 30.5595 50.3716 30.6477 50.517 30.7099C50.6623 30.7721 50.8129 30.8033 50.9686 30.8033C51.0828 30.8033 51.2022 30.7825 51.3163 30.7462C51.4306 30.7048 51.5344 30.6425 51.6227 30.5595C51.7109 30.4766 51.7836 30.3677 51.8355 30.2381C51.8874 30.1084 51.9134 29.9529 51.9134 29.7714V26.1782H51.2229V26.339V26.3234Z" fill="#FAF9F9"/>
<path d="M54.0574 26.3231L54.291 26.4217V30.326H56.7982V30.0875H54.7842V28.2156H56.3882V27.9823H54.7842V26.4009H56.7982V26.1624H54.0574V26.3231Z" fill="#FAF9F9"/>
<path d="M63.0067 29.6519L61.6415 26.1624H61.1016L61.709 27.7283L60.9615 29.683L59.6014 26.1624H58.9266V26.3024L59.1654 26.4268L60.676 30.2844L60.6915 30.326H60.9718L61.8439 28.0705L62.7264 30.326H63.0067L64.6211 26.1624H64.3563L63.0067 29.6519Z" fill="#FAF9F9"/>
<path d="M66.6299 26.3231L66.8636 26.4217V30.326H69.3708V30.0875H67.3567V28.2156H68.9607V27.9823H67.3567V26.4009H69.3708V26.1624H66.6299V26.3231Z" fill="#FAF9F9"/>
<path d="M72.2259 26.1624H71.4991V26.3231L71.7327 26.4217V30.326H74.2815V30.0875H72.2259V26.1624Z" fill="#FAF9F9"/>
<path d="M76.9597 26.1624H76.233V26.3231L76.4666 26.4217V30.326H79.0154V30.0875H76.9597V26.1624Z" fill="#FAF9F9"/>
<path d="M80.9673 26.3231L81.1958 26.4217V30.326H83.7083V30.0875H81.6941V28.2156H83.2929V27.9823H81.6941V26.4009H83.7083V26.1624H80.9673V26.3231Z" fill="#FAF9F9"/>
<path d="M87.6535 28.1794C87.8353 28.1484 87.991 28.0862 88.1156 27.9928C88.2609 27.884 88.3751 27.7543 88.4426 27.6039C88.5101 27.4588 88.5413 27.2981 88.5308 27.1269C88.5205 26.961 88.4686 26.8054 88.3855 26.6655C88.2972 26.5255 88.1675 26.4063 88.0013 26.3129C87.8353 26.2196 87.6328 26.1729 87.3888 26.1729H85.8315V26.3336L86.0599 26.4322V30.3416H86.5531V28.2054H87.1189L88.2868 30.3416H88.9305V30.1808L88.6918 30.0876L87.6535 28.1847V28.1794ZM86.5531 26.4114H87.2331C87.4044 26.4114 87.5497 26.4477 87.6639 26.5255C87.7782 26.598 87.8664 26.6966 87.9235 26.8106C87.9806 26.9247 88.0118 27.0543 88.0118 27.184C88.0118 27.3136 87.9806 27.4432 87.9235 27.5573C87.8664 27.6714 87.7782 27.7699 87.6639 27.8424C87.5497 27.915 87.4044 27.9565 87.2331 27.9565H86.5531V26.4063V26.4114Z" fill="#FAF9F9"/>
<path d="M93.3482 26.1624L92.2633 28.0601L91.1524 26.1624H90.4465V26.3024L90.732 26.4527L91.8948 28.3972V30.326H92.3723V28.3297L93.6126 26.1624H93.3482Z" fill="#FAF9F9"/>
</svg>
