<svg width="18" height="17" viewBox="0 0 18 17" fill="none" xmlns="http://www.w3.org/2000/svg">
<path d="M8.99549 3.35385C11.5438 3.3567 13.6089 5.34703 13.6118 7.8029V10.5335C13.6118 12.9908 11.545 14.9829 8.99549 14.9829C6.44594 14.9829 4.37913 12.9908 4.37913 10.5335V7.80316C4.38208 5.34703 6.44712 3.35671 8.9952 3.35385H8.99549ZM8.99549 14.2681C11.1344 14.2656 12.8677 12.5951 12.8703 10.5338V7.80318C12.8703 5.74063 11.1355 4.06859 8.99549 4.06859C6.85551 4.06859 5.1207 5.74063 5.1207 7.80318V10.5335C5.12325 12.5951 6.85653 14.2656 8.99523 14.2681H8.99547H8.99549ZM12.8777 6.08418H14.6649C16.0404 6.08583 17.1549 7.16007 17.1566 8.48561V9.85093C17.1549 11.1766 16.0404 12.2509 14.665 12.2525H12.8777V6.08418ZM14.6649 11.5377C15.631 11.5365 16.4138 10.782 16.415 9.85105V8.48576C16.4138 7.55465 15.631 6.80015 14.665 6.79895H13.6192V11.5377H14.6649ZM5.12073 12.2525H3.33353C1.95804 12.2509 0.843473 11.1766 0.841797 9.8511V8.48578C0.843489 7.16007 1.95806 6.08581 3.33337 6.08418H5.12073V12.2525ZM3.33353 6.79896C2.36745 6.8002 1.58464 7.55467 1.58336 8.48565V9.85094C1.58464 10.7821 2.36745 11.5366 3.33337 11.5378H4.37916V6.79895L3.33353 6.79896ZM15.0357 6.4416H14.2941C14.2941 3.62312 11.9235 1.33827 8.99921 1.33827C6.07492 1.33827 3.70433 3.62308 3.70433 6.44157H2.96276C2.96276 3.22833 5.66535 0.623535 8.99921 0.623535C12.3331 0.623535 15.0357 3.22833 15.0357 6.44157L15.0357 6.4416ZM11.1201 16.3766V15.6619C12.8695 15.659 14.2874 14.2947 14.2941 12.6097V11.8944H15.0357V12.6091C15.0281 14.6892 13.2788 16.373 11.1205 16.3766H11.1201H11.1201Z" fill="#8A5D11"/>
</svg>
