<svg width="15" height="16" viewBox="0 0 15 16" fill="none" xmlns="http://www.w3.org/2000/svg">
<path d="M6.30778 11.9533C7.27812 11.9533 8.06472 12.7473 8.06472 13.7267C8.06472 14.7061 7.27812 15.5 6.30778 15.5C5.33747 15.5 4.55084 14.7061 4.55084 13.7267C4.55084 12.7473 5.33744 11.9533 6.30778 11.9533ZM6.30778 14.5C6.73095 14.5 7.07398 14.1538 7.07398 13.7267C7.07398 13.2995 6.73095 12.9533 6.30779 12.9533C5.88465 12.9533 5.54162 13.2995 5.54162 13.7267C5.54162 14.1538 5.88465 14.5 6.30781 14.5H6.30778ZM11.9815 11.9533C12.9519 11.9533 13.7385 12.7473 13.7385 13.7267C13.7385 14.7061 12.9519 15.5 11.9815 15.5C11.0112 15.5 10.2246 14.7061 10.2246 13.7267C10.2246 12.7473 11.0112 11.9533 11.9815 11.9533ZM11.9815 14.5C12.4047 14.5 12.7477 14.1538 12.7477 13.7267C12.7477 13.2995 12.4047 12.9533 11.9815 12.9533C11.5584 12.9533 11.2153 13.2995 11.2153 13.7267C11.2153 14.1538 11.5583 14.5 11.9815 14.5H11.9815ZM11.9683 12.9533H5.36327C5.35682 12.9534 5.3492 12.9535 5.34156 12.9535C4.19794 12.9535 3.27089 12.0177 3.27089 10.8635C3.27089 9.82646 4.01918 8.96585 5.00049 8.80171L5.01254 8.80003L3.09116 2.48272C2.9067 1.90818 2.38125 1.50005 1.76134 1.50005H0V0.500029H1.75694L1.76716 0.5C2.82713 0.5 3.7254 1.19887 4.03428 2.16501L4.03898 2.18203V2.18736L6.34218 9.774H5.36327C4.76686 9.774 4.28336 10.262 4.28336 10.864C4.28336 11.466 4.76686 11.954 5.36327 11.954H11.9683V12.9533ZM13.6169 9.77336H5.67371V8.77336H12.8666L14.0092 4.75003V4.0467H4.41877V3.0467H15V4.89002L13.6169 9.77336Z" fill="#FAF9F9"/>
</svg>
